<svg width="140" height="49" viewBox="0 0 140 49" fill="none" xmlns="http://www.w3.org/2000/svg">
<g clip-path="url(#clip0_1405_5116)">
<mask id="mask0_1405_5116" style="mask-type:luminance" maskUnits="userSpaceOnUse" x="0" y="0" width="140" height="49">
<path d="M140 0.468384H0V48.4684H140V0.468384Z" fill="white"/>
</mask>
<g mask="url(#mask0_1405_5116)">
<path d="M26.4157 1.27366C26.4157 1.11882 26.5093 1.05688 26.6964 1.05688H31.3745C34.3061 1.05688 36.3333 2.82204 36.3333 5.23753V10.4091C36.3333 12.8246 34.0254 14.7446 31.3745 14.7446H26.6964C26.5405 14.7446 26.4157 14.6517 26.4157 14.5279V1.27366ZM31.125 12.3911C32.4349 12.3911 33.3705 11.5859 33.3705 10.0685V5.57818C33.3705 4.18463 32.4037 3.41043 31.125 3.41043H29.3161V12.3911H31.125Z" fill="#811C63"/>
<path d="M38.0485 0.963844C38.0485 0.809006 38.1421 0.74707 38.3292 0.74707H46.2819C46.4379 0.74707 46.5003 0.809006 46.5003 0.963844V2.88384C46.5003 3.03868 46.4379 3.10062 46.2819 3.10062H40.9489V6.4761H45.5647C45.7206 6.4761 45.7829 6.53804 45.7829 6.69288V8.64382C45.7829 8.79869 45.7206 8.86062 45.5647 8.86062H40.9489V12.391H46.4379C46.5938 12.391 46.6562 12.4529 46.6562 12.6077V14.5277C46.6562 14.6826 46.5938 14.7445 46.4379 14.7445H38.3292C38.1733 14.7445 38.0485 14.6516 38.0485 14.5277V0.963844Z" fill="#811C63"/>
<path d="M48.0596 0.963844C48.0596 0.809006 48.1531 0.74707 48.3403 0.74707H50.6481C50.8353 0.74707 50.9288 0.809006 50.9288 0.963844V10.7187C50.9288 11.9574 51.6149 12.6387 53.0183 12.6387C54.3282 12.6387 55.1391 11.9574 55.1391 10.7187V0.963844C55.1391 0.809006 55.2327 0.74707 55.4198 0.74707H57.7277C57.9148 0.74707 58.0083 0.809006 58.0083 0.963844V10.9974C58.0083 13.4129 56.1059 15.0852 53.0495 15.0852C49.8996 15.0852 48.1219 13.4438 48.1219 10.9974V0.963844H48.0596Z" fill="#811C63"/>
<path d="M58.944 0.963844C58.944 0.809006 59.0064 0.74707 59.1623 0.74707H67.926C68.082 0.74707 68.144 0.809006 68.144 0.963844V2.91481C68.144 3.06965 68.082 3.13158 67.926 3.13158H64.9631V14.5587C64.9631 14.7135 64.932 14.7755 64.7761 14.7755H62.2499C62.0939 14.7755 62.0627 14.7135 62.0627 14.5587V3.13158H59.1623C59.0064 3.13158 58.944 3.06965 58.944 2.91481V0.963844Z" fill="#811C63"/>
<path d="M68.6433 12.5458L70.6393 11.3691C70.858 11.2452 71.076 11.3071 71.2007 11.4929C71.7313 12.2981 72.604 12.6697 73.54 12.6697C75.0993 12.6697 75.91 12.0503 75.91 11.0593C75.91 10.3161 75.4733 9.82065 74.4753 9.44905L71.388 8.30325C69.8907 7.71485 68.768 6.07354 68.768 4.33935C68.768 2.0787 70.8267 0.468384 73.5087 0.468384C75.91 0.468384 77.4073 1.30451 78.3427 2.88387C78.4673 3.06968 78.374 3.19354 78.2493 3.25548L76.3153 4.24645C76.1287 4.33935 75.9413 4.27742 75.848 4.12258C75.442 3.31742 74.7253 2.82193 73.6333 2.82193C72.4793 2.82193 71.7313 3.34838 71.7313 4.30838C71.7313 4.98967 72.1367 5.54709 73.3213 6.01161L75.692 6.8787C77.75 7.62192 78.686 8.92258 78.686 10.9045C78.686 13.32 76.7207 15.1471 73.602 15.1471C71.1693 15.1471 69.61 14.4658 68.612 13.0723C68.4567 12.7935 68.4873 12.6387 68.6433 12.5458Z" fill="#811C63"/>
<path d="M79.746 4.49419C79.746 2.04774 81.8666 0.468384 84.7986 0.468384C87.0753 0.468384 88.6966 1.45935 89.414 3.10064C89.508 3.28645 89.4453 3.41032 89.3206 3.47226L87.262 4.40128C87.1373 4.46322 86.9506 4.40128 86.888 4.24645C86.5446 3.31742 85.8586 2.8529 84.7986 2.8529C83.3013 2.8529 82.678 3.44128 82.678 4.7729V10.5329C82.678 11.8335 83.4573 12.6077 84.892 12.6077C85.89 12.6077 86.6073 12.0813 86.9506 11.2142C87.0126 11.0284 87.2 10.9665 87.3873 11.0594L89.196 11.8026C89.4453 11.9265 89.5386 12.1433 89.414 12.391C88.7593 13.9394 87.044 15.0542 84.736 15.0542C81.742 15.0542 79.7773 13.1961 79.7773 10.6258L79.746 4.49419Z" fill="#811C63"/>
<path d="M90.724 0.963844C90.724 0.809006 90.818 0.74707 91.0047 0.74707H93.3753C93.562 0.74707 93.656 0.809006 93.656 0.963844V6.69288H98.1153V0.963844C98.1153 0.809006 98.2093 0.74707 98.396 0.74707H100.767C100.953 0.74707 101.047 0.809006 101.047 0.963844V14.5277C101.047 14.6516 100.953 14.7445 100.767 14.7445H98.334C98.178 14.7445 98.0533 14.6516 98.0533 14.5277V9.07742H93.5933V14.5587C93.5933 14.6826 93.5 14.7755 93.3127 14.7755H90.9427C90.7867 14.7755 90.662 14.6826 90.662 14.5587V0.963844H90.724Z" fill="#811C63"/>
<path d="M103.043 0.963844C103.043 0.809006 103.137 0.74707 103.323 0.74707H111.277C111.433 0.74707 111.495 0.809006 111.495 0.963844V2.88384C111.495 3.03868 111.433 3.10062 111.277 3.10062H105.943V6.4761H110.559C110.715 6.4761 110.777 6.53804 110.777 6.69288V8.64382C110.777 8.79869 110.715 8.86062 110.559 8.86062H105.943V12.391H111.433C111.588 12.391 111.651 12.4529 111.651 12.6077V14.5277C111.651 14.6826 111.588 14.7445 111.433 14.7445H103.323C103.168 14.7445 103.043 14.6516 103.043 14.5277V0.963844Z" fill="#811C63"/>
<path d="M17.3714 17.5007H19.9911C20.1782 17.5007 20.303 17.5626 20.3341 17.7484L22.1119 27.7819L23.8271 17.7484C23.8583 17.5626 24.0143 17.4697 24.139 17.4697H27.0083C27.1954 17.4697 27.3201 17.5626 27.3825 17.7794L29.5033 27.7819L30.9379 17.7175C30.9691 17.5317 31.0938 17.4697 31.3121 17.4697H33.9319C34.0878 17.4697 34.119 17.5936 34.0878 17.7484L31.2809 31.3433C31.2497 31.4671 31.1562 31.4671 31.0003 31.4671H28.0063C27.8815 31.4671 27.7256 31.4361 27.6944 31.3123L25.5425 21.5265L23.6089 31.3433C23.5777 31.4671 23.4841 31.4981 23.3593 31.4981H20.5213C20.3965 31.4981 20.2406 31.4671 20.2406 31.3742L17.1843 17.6865C17.1219 17.5626 17.2778 17.5007 17.3714 17.5007Z" fill="#811C63"/>
<path d="M35.0856 20.9691C35.0856 18.6156 36.9257 17.191 40.0756 17.191C43.1007 17.191 45.0655 18.6465 45.0655 20.9691V27.72C45.0655 30.1046 43.1007 31.8078 40.0756 31.8078C36.9881 31.8078 35.0856 30.1046 35.0856 27.72V20.9691ZM40.0756 29.3614C41.5102 29.3614 42.1963 28.68 42.1963 27.4414V21.4956C42.1963 20.2568 41.479 19.5756 40.0756 19.5756C38.5162 19.5756 37.9861 20.2568 37.9861 21.4956V27.4723C37.9861 28.711 38.5162 29.3614 40.0756 29.3614Z" fill="#811C63"/>
<path d="M46.9369 17.6865C46.9369 17.5317 47.0304 17.4697 47.2175 17.4697H49.5878C49.7749 17.4697 49.8685 17.5317 49.8685 17.6865V23.4155H54.3283V17.6865C54.3283 17.5317 54.4218 17.4697 54.6089 17.4697H56.9792C57.1663 17.4697 57.2599 17.5317 57.2599 17.6865V31.2503C57.2599 31.3742 57.1663 31.4671 56.9792 31.4671H54.6089C54.453 31.4671 54.3283 31.3742 54.3283 31.2503V25.7691H49.8685V31.2503C49.8685 31.3742 49.7749 31.4671 49.5878 31.4671H47.2175C47.0616 31.4671 46.9369 31.3742 46.9369 31.2503V17.6865Z" fill="#811C63"/>
<path d="M59.2559 17.6865C59.2559 17.5317 59.3494 17.4697 59.5365 17.4697H62.0003C62.1875 17.4697 62.3434 17.5626 62.4058 17.6865L67.1153 26.9149L66.928 17.6865C66.928 17.5317 67.0213 17.4697 67.2087 17.4697H69.5787C69.766 17.4697 69.8593 17.5317 69.8593 17.6865V31.2503C69.8593 31.3742 69.766 31.4671 69.5787 31.4671H67.0527C66.8967 31.4671 66.772 31.4052 66.6787 31.2503L62.1563 22.5484L62.1875 31.2503C62.1875 31.3742 62.0939 31.4671 61.9068 31.4671H59.5365C59.3806 31.4671 59.2559 31.3742 59.2559 31.2503V17.6865Z" fill="#811C63"/>
<path d="M71.8867 17.6865C71.8867 17.5317 71.9807 17.4697 72.168 17.4697H80.1207C80.2767 17.4697 80.3387 17.5317 80.3387 17.6865V19.6065C80.3387 19.7613 80.2767 19.8233 80.1207 19.8233H74.7873V23.1987H79.4033C79.5593 23.1987 79.6213 23.2607 79.6213 23.4155V25.3665C79.6213 25.5213 79.5593 25.5833 79.4033 25.5833H74.7873V29.1136H80.2453C80.4013 29.1136 80.4633 29.1755 80.4633 29.3303V31.2503C80.4633 31.4052 80.4013 31.4671 80.2453 31.4671H72.1367C71.9807 31.4671 71.856 31.3742 71.856 31.2503L71.8867 17.6865Z" fill="#811C63"/>
<path d="M82.1786 17.6865C82.1786 17.5317 82.272 17.4697 82.4593 17.4697H84.9233C85.11 17.4697 85.266 17.5626 85.3286 17.6865L90.038 26.9149L89.8507 17.6865C89.8507 17.5317 89.9447 17.4697 90.1313 17.4697H92.502C92.6887 17.4697 92.7826 17.5317 92.7826 17.6865V31.2503C92.7826 31.3742 92.6887 31.4671 92.502 31.4671H89.9753C89.8193 31.4671 89.6946 31.4052 89.6013 31.2503L85.0793 22.5484L85.11 31.2503C85.11 31.3742 85.0167 31.4671 84.8293 31.4671H82.4593C82.3033 31.4671 82.1786 31.3742 82.1786 31.2503V17.6865Z" fill="#811C63"/>
<path d="M36.5205 34.4091C36.5205 34.2542 36.614 34.1923 36.8011 34.1923H44.7539C44.9099 34.1923 44.9722 34.2542 44.9722 34.4091V36.3291C44.9722 36.4839 44.9099 36.5459 44.7539 36.5459H39.3897V39.9213H44.0054C44.1613 39.9213 44.2237 39.9833 44.2237 40.1381V42.0891C44.2237 42.2439 44.1613 42.3059 44.0054 42.3059H39.3897V45.8361H44.8787C45.0346 45.8361 45.097 45.8981 45.097 46.0529V47.9729C45.097 48.1278 45.0346 48.1897 44.8787 48.1897H36.7699C36.614 48.1897 36.4893 48.0968 36.4893 47.9729L36.5205 34.4091Z" fill="#811C63"/>
<path d="M46.8121 34.4091C46.8121 34.2542 46.9057 34.1923 47.0928 34.1923H49.5566C49.7437 34.1923 49.8997 34.2852 49.962 34.4091L54.6713 43.6375L54.4842 34.4091C54.4842 34.2542 54.5777 34.1923 54.7649 34.1923H57.1351C57.3223 34.1923 57.4158 34.2542 57.4158 34.4091V47.9729C57.4158 48.0968 57.3223 48.1897 57.1351 48.1897H54.6089C54.453 48.1897 54.3283 48.1278 54.2347 47.9729L49.6813 39.302L49.7125 48.0039C49.7125 48.1278 49.619 48.2207 49.4319 48.2207H47.0616C46.9057 48.2207 46.7809 48.1278 46.7809 48.0039L46.8121 34.4091Z" fill="#811C63"/>
<path d="M58.4763 34.4091C58.4763 34.2542 58.5386 34.1923 58.6945 34.1923H67.458C67.614 34.1923 67.6767 34.2542 67.6767 34.4091V36.3601C67.6767 36.5149 67.614 36.5768 67.458 36.5768H64.4954V48.0039C64.4954 48.1587 64.4642 48.2207 64.3083 48.2207H61.7821C61.6261 48.2207 61.595 48.1587 61.595 48.0039V36.5768H58.6945C58.5386 36.5768 58.4763 36.5149 58.4763 36.3601V34.4091Z" fill="#811C63"/>
<path d="M68.7993 34.4091C68.7993 34.2542 68.8927 34.1923 69.08 34.1923H77.0327C77.1887 34.1923 77.2507 34.2542 77.2507 34.4091V36.3291C77.2507 36.4839 77.1887 36.5459 77.0327 36.5459H71.6993V39.9213H76.3153C76.4713 39.9213 76.5333 39.9833 76.5333 40.1381V42.0891C76.5333 42.2439 76.4713 42.3059 76.3153 42.3059H71.6993V45.8361H77.1886C77.3446 45.8361 77.4067 45.8981 77.4067 46.0529V47.9729C77.4067 48.1278 77.3446 48.1897 77.1886 48.1897H69.08C68.924 48.1897 68.7993 48.0968 68.7993 47.9729V34.4091Z" fill="#811C63"/>
<path d="M79.1227 34.4091C79.1227 34.2542 79.216 34.1923 79.4034 34.1923H81.7734C81.9607 34.1923 82.054 34.2542 82.054 34.4091V47.9729C82.054 48.0968 81.9607 48.1897 81.7734 48.1897H79.4034C79.2474 48.1897 79.1227 48.0968 79.1227 47.9729V34.4091Z" fill="#811C63"/>
<path d="M83.6133 37.8466C83.6133 35.1834 85.734 33.9137 88.6653 33.9137C91.192 33.9137 92.4707 34.8427 93.2813 36.546C93.344 36.7008 93.3127 36.8556 93.188 36.9176L91.1293 37.8466C91.0047 37.9085 90.8173 37.8776 90.7553 37.6918C90.3807 36.7627 89.726 36.2982 88.6653 36.2982C87.356 36.2982 86.5447 36.8556 86.5447 38.2182V44.0711C86.5447 45.2788 87.3247 46.053 88.6033 46.053C89.7887 46.053 90.6927 45.4027 90.724 44.5046L90.7553 42.3988L88.4787 42.3679C88.3227 42.3679 88.26 42.306 88.26 42.1511V40.5098C88.26 40.355 88.3227 40.293 88.4787 40.293H93.25C93.4373 40.293 93.5307 40.386 93.5307 40.5098V47.9421C93.5307 48.066 93.4373 48.1279 93.2813 48.1279H91.41C91.254 48.1279 91.1293 48.035 91.0673 47.8801L90.8487 47.3846C90.256 48.1279 89.352 48.4685 87.886 48.4685C85.6407 48.4685 83.6753 46.9201 83.6753 44.3808V37.8466H83.6133Z" fill="#811C63"/>
<path d="M95.09 34.4091C95.09 34.2542 95.184 34.1923 95.3706 34.1923H97.8346C98.022 34.1923 98.178 34.2852 98.24 34.4091L102.949 43.6375L102.762 34.4091C102.762 34.2542 102.856 34.1923 103.043 34.1923H105.413C105.6 34.1923 105.694 34.2542 105.694 34.4091V47.9729C105.694 48.0968 105.6 48.1897 105.413 48.1897H102.887C102.731 48.1897 102.606 48.1278 102.513 47.9729L97.9906 39.271L98.022 47.9729C98.022 48.0968 97.928 48.1897 97.7413 48.1897H95.3706C95.2146 48.1897 95.09 48.0968 95.09 47.9729V34.4091Z" fill="#811C63"/>
<path d="M107.721 34.4091C107.721 34.2542 107.815 34.1923 108.002 34.1923H115.955C116.111 34.1923 116.173 34.2542 116.173 34.4091V36.3291C116.173 36.4839 116.111 36.5459 115.955 36.5459H110.621V39.9213H115.237C115.393 39.9213 115.455 39.9833 115.455 40.1381V42.0891C115.455 42.2439 115.393 42.3059 115.237 42.3059H110.621V45.8361H116.111C116.267 45.8361 116.329 45.8981 116.329 46.0529V47.9729C116.329 48.1278 116.267 48.1897 116.111 48.1897H108.002C107.846 48.1897 107.721 48.0968 107.721 47.9729V34.4091Z" fill="#811C63"/>
<path d="M118.013 34.4091C118.013 34.2542 118.107 34.1923 118.294 34.1923H120.757C120.945 34.1923 121.101 34.2852 121.163 34.4091L125.872 43.6375L125.685 34.4091C125.685 34.2542 125.779 34.1923 125.966 34.1923H128.336C128.523 34.1923 128.617 34.2542 128.617 34.4091V47.9729C128.617 48.0968 128.523 48.1897 128.336 48.1897H125.779C125.623 48.1897 125.498 48.1278 125.405 47.9729L120.882 39.271L120.913 47.9729C120.913 48.0968 120.82 48.1897 120.633 48.1897H118.294C118.138 48.1897 118.013 48.0968 118.013 47.9729V34.4091Z" fill="#811C63"/>
<path d="M20.1784 1.27366C20.1784 1.11882 20.2719 1.05688 20.4279 1.05688H22.7045C22.8917 1.05688 22.9541 1.11882 22.9541 1.27366V14.5588C22.9541 14.6827 22.8605 14.7756 22.7045 14.7756H20.4279C20.2719 14.7756 20.1784 14.6827 20.1784 14.5588V1.27366Z" fill="#811C63"/>
<path d="M14.0033 1.27366C14.0033 1.11882 14.0968 1.05688 14.2527 1.05688H16.5294C16.7165 1.05688 16.7789 1.11882 16.7789 1.27366V14.5588C16.7789 14.6827 16.6853 14.7756 16.5294 14.7756H14.2527C14.0968 14.7756 14.0033 14.6827 14.0033 14.5588V1.27366Z" fill="#811C63"/>
<path d="M10.0734 1.11876C10.1046 0.963916 10.1982 0.932948 10.3853 0.963916L12.6308 1.39746C12.7867 1.42843 12.8803 1.52134 12.8491 1.6452L10.2917 14.6207C10.2605 14.7446 10.167 14.8065 9.97988 14.7756L7.73441 14.342C7.57848 14.311 7.48488 14.2181 7.51608 14.0942L10.0734 1.11876Z" fill="#811C63"/>
<path d="M6.42471 1.67614C6.48709 1.55226 6.61183 1.5213 6.7678 1.6142L8.76373 2.69807C8.91967 2.79097 8.95087 2.88388 8.88853 3.00775L2.49511 14.5896C2.43273 14.7136 2.30798 14.7445 2.15205 14.6516L0.156055 13.5677C0.0313058 13.5058 -0.0310689 13.3819 0.0313058 13.258L6.42471 1.67614Z" fill="#811C63"/>
<path d="M102.637 24.4065C101.483 23.7871 100.704 22.7032 100.704 21.1239C100.704 19.08 102.295 17.2529 104.977 17.2529C106.661 17.2529 108.064 17.8103 109.031 18.9251C109.156 19.0491 109.156 19.2658 109 19.3897L107.659 20.4116C107.471 20.5355 107.285 20.5355 107.16 20.3807C106.629 19.7613 106.068 19.4516 105.257 19.4516C104.103 19.4516 103.511 20.2877 103.511 21.1549C103.511 22.4555 104.509 23.2297 105.881 23.2297H108.501V21.3407C108.501 21.0929 108.657 21.1239 108.844 21.1239H110.996C111.245 21.1239 111.339 21.2477 111.339 21.3407V23.2297H112.337C112.524 23.2297 112.586 23.2607 112.586 23.4465V25.2426C112.586 25.3974 112.555 25.4284 112.368 25.4284H111.339L111.307 31.1574C111.307 31.3123 111.245 31.3742 111.089 31.3742L104.945 31.4051C102.107 31.4361 100.455 29.7639 100.455 27.5032C100.485 26.0787 101.359 24.9329 102.637 24.4065ZM105.507 29.1135L108.501 29.1445V25.4593H105.569C104.135 25.4593 103.417 26.1097 103.417 27.2865C103.417 28.4632 104.166 29.1135 105.507 29.1135Z" fill="#811C63"/>
<path d="M118.793 21.1549C118.793 18.7394 120.851 17.191 123.751 17.191C125.966 17.191 127.556 18.151 128.273 19.7614C128.367 19.9472 128.305 20.071 128.18 20.133L126.153 21.062C126.028 21.1239 125.841 21.062 125.779 20.9072C125.435 19.9781 124.781 19.5446 123.72 19.5446C122.255 19.5446 121.631 20.133 121.631 21.4336V27.0697C121.631 28.3394 122.41 29.1136 123.814 29.1136C124.812 29.1136 125.498 28.6181 125.81 27.751C125.872 27.5652 126.059 27.5033 126.247 27.5962L127.993 28.3394C128.243 28.4633 128.336 28.68 128.211 28.9278C127.587 30.4452 125.872 31.56 123.627 31.56C120.695 31.56 118.761 29.7639 118.761 27.2246V21.1549H118.793Z" fill="#811C63"/>
<path d="M130.238 20.9072C130.238 18.6156 132.047 17.191 135.103 17.191C138.066 17.191 139.969 18.6156 139.969 20.9072V27.5342C139.969 29.8568 138.066 31.5291 135.103 31.5291C132.079 31.5291 130.238 29.8568 130.238 27.5342V20.9072ZM135.135 29.1446C136.538 29.1446 137.193 28.4942 137.193 27.2556V21.4026C137.193 20.1949 136.476 19.5136 135.135 19.5136C133.607 19.5136 133.076 20.1639 133.076 21.4026V27.2556C133.076 28.4633 133.607 29.1446 135.135 29.1446Z" fill="#811C63"/>
</g>
</g>
<defs>
<clipPath id="clip0_1405_5116">
<rect width="140" height="48" fill="white" transform="translate(0 0.468384)"/>
</clipPath>
</defs>
</svg>
