<svg width="650" height="559" viewBox="0 0 650 559" fill="none" xmlns="http://www.w3.org/2000/svg">
<path d="M110.363 0C115.13 0.801 142.335 0.428993 148.891 0.429993L234.784 0.440002C335.686 0.446002 438.957 1.53901 539.659 0.200012C546.73 15.242 560.017 34.731 568.424 49.352C594.932 95.648 622.131 141.537 650 187.001L440.804 187.122C446.151 198.199 450.961 204.85 457.182 215.277L483.095 258.84C487.935 266.841 492.071 274.967 496.731 283.004L525.233 331.604C533.517 345.897 541.617 358.406 549.945 373.334C531.641 372.526 510.491 372.947 491.986 372.94L389.167 372.985C370.643 372.996 350.823 373.349 332.39 372.857C333.007 377.858 336.132 383.355 338.747 387.641C355.733 415.492 372.321 443.688 388.752 471.87C392.948 479.066 396.787 486.238 401.25 493.256C407.728 502.749 411.984 511.585 417.744 521.324C425.186 533.907 432.91 546.393 440.414 558.965C420.219 558.537 399.276 559.052 379.007 558.902C322.927 558.488 266.476 559.449 210.423 558.712C221.289 544.207 227.384 530.994 236.537 515.737C245.081 501.493 253.545 487.05 261.924 472.728C271.686 456.045 281.648 440.081 291.046 423.113C300.137 406.7 312.601 390.75 319.388 372.953C304.513 373.63 284.505 372.974 269.271 372.965L161.007 372.941C142 372.946 119.822 372.44 101.114 373.207C107.196 362.185 114.676 351.008 121.063 340.016L182.801 234.26C192.505 217.644 201.359 204.778 210.167 187.251C173.285 186.859 136.401 186.764 99.5166 186.968C66.7087 186.976 32.7256 186.498 0 186.929C8.72101 178.224 15.7087 162.094 22.189 151.224L80.3392 52.327C84.4446 45.281 108.975 5.911 110.363 0Z" fill="white" fill-opacity="0.1"/>
</svg>
