<svg width="88" height="36" viewBox="0 0 88 36" fill="none" xmlns="http://www.w3.org/2000/svg">
<path d="M6.67688 0.895395C6.96528 0.943686 8.61116 0.921274 9.00781 0.921316L14.2043 0.921908C20.3087 0.922289 26.5566 0.988128 32.649 0.907446C33.0768 1.81406 33.8807 2.98878 34.3893 3.87003C35.993 6.6605 37.6385 9.42636 39.3245 12.1667L26.6684 12.174C26.9918 12.8416 27.2828 13.2425 27.6592 13.871L29.2269 16.4967C29.5198 16.9789 29.77 17.4688 30.0519 17.9531L31.7762 20.8825C32.2774 21.7439 32.7675 22.4979 33.2713 23.3977C32.1639 23.349 30.8843 23.3744 29.7648 23.374L23.5443 23.3767C22.4236 23.3773 21.2246 23.3986 20.1093 23.369C20.1467 23.6704 20.3358 24.0017 20.494 24.2601C21.5216 25.9387 22.5252 27.6382 23.5192 29.3368C23.7731 29.7706 24.0054 30.2029 24.2753 30.6259C24.6672 31.198 24.9248 31.7306 25.2732 32.3176C25.7235 33.0761 26.1908 33.8286 26.6447 34.5864C25.423 34.5606 24.1559 34.5917 22.9297 34.5826C19.5368 34.5577 16.1216 34.6156 12.7304 34.5712C13.3878 33.6969 13.7566 32.9005 14.3104 31.9809C14.8273 31.1224 15.3393 30.2518 15.8462 29.3886C16.4368 28.383 17.0395 27.4208 17.6081 26.3981C18.1581 25.4088 18.9122 24.4474 19.3228 23.3748C18.4228 23.4156 17.2124 23.376 16.2907 23.3754L9.74084 23.374C8.59091 23.3743 7.24912 23.3438 6.11735 23.3901C6.48531 22.7257 6.93784 22.052 7.32424 21.3895L11.0593 15.0152C11.6464 14.0137 12.1821 13.2382 12.715 12.1817C10.4836 12.1581 8.25215 12.1524 6.02068 12.1647C4.03583 12.1652 1.97987 12.1364 0 12.1623C0.527615 11.6376 0.950368 10.6654 1.34242 10.0102L4.86047 4.04932C5.10884 3.62468 6.59289 1.25166 6.67688 0.895395Z" fill="white"/>
<path d="M45.4338 10.5822V0.67302H48.2229L50.7244 7.56074L53.1685 0.67302H55.785V10.5822H53.8298V3.2935L51.242 10.5822H49.8618L47.1878 3.27918V10.5822H45.4338Z" fill="white"/>
<path d="M57.3127 10.5822V2.79232H59.2104V10.5822H57.3127ZM57.2983 1.80427V0H59.2248V1.80427H57.2983Z" fill="white"/>
<path d="M63.8718 10.797C61.6003 10.797 60.0764 9.13589 60.0764 6.64428C60.0764 4.18132 61.5428 2.5632 63.7712 2.5632C66.1146 2.5632 67.5091 4.20996 67.2935 7.04523H62.0747C62.1898 8.54879 62.8798 9.46524 63.9293 9.46524C64.7776 9.46524 65.4245 8.83518 65.6114 7.86145L67.2935 8.44855C66.9484 9.85187 65.5539 10.797 63.8718 10.797ZM62.1035 5.87103H65.3526C65.3239 4.63954 64.6913 3.83765 63.7999 3.83765C62.9086 3.83765 62.276 4.6109 62.1035 5.87103Z" fill="white"/>
<path d="M72.5067 10.5249C70.2065 11.1979 68.7688 10.5106 68.7688 8.72062V3.99516H67.5036V2.79232H68.7975V1.47492L70.6378 0.558463V2.79232H72.4492V3.99516H70.6378V8.36263C70.6378 9.26477 71.2847 9.53684 72.3486 9.09293L72.5067 10.5249Z" fill="white"/>
<path d="M76.6767 10.797C74.4051 10.797 72.8812 9.13589 72.8812 6.64428C72.8812 4.18132 74.3476 2.5632 76.576 2.5632C78.9194 2.5632 80.314 4.20996 80.0983 7.04523H74.8796C74.9946 8.54879 75.6847 9.46524 76.7342 9.46524C77.5824 9.46524 78.2293 8.83518 78.4162 7.86145L80.0983 8.44855C79.7533 9.85187 78.3587 10.797 76.6767 10.797ZM74.9083 5.87103H78.1574C78.1287 4.63954 77.4961 3.83765 76.6048 3.83765C75.7134 3.83765 75.0808 4.6109 74.9083 5.87103Z" fill="white"/>
<path d="M81.0129 10.5822V2.79232H82.8819V4.33883C83.2701 3.2935 84.2477 2.62048 85.4697 2.62048C86.9936 2.62048 88 3.66581 88 5.31256V10.5822H86.1023V5.59895C86.1023 4.52499 85.5991 3.89492 84.7365 3.89492C83.5863 3.89492 82.9106 4.99753 82.9106 6.85908V10.5822H81.0129Z" fill="white"/>
<path d="M53.388 23.2171H45.0673V22.6991H46.2188L46.3674 22.5511V13.8565L46.2188 13.7085H45.0673V13.1905H49.3391V13.7085H48.039L47.8904 13.8565V22.3587H51.3078C52.4222 22.3587 52.868 22.0923 52.868 20.7752V20.2202H53.388V23.2171Z" fill="white"/>
<path d="M57.7795 18.0373C57.7795 17.0754 57.148 16.7498 56.4794 16.7498C56.1079 16.7498 55.8405 16.8682 55.7365 17.2234L55.469 18.1261L54.1615 18.2741L54.0723 18.0817C54.2506 17.0014 55.2461 16.2688 56.8434 16.2688C58.2327 16.2688 59.2059 16.7794 59.139 18.2001L58.9756 21.6632C58.9533 22.1811 59.035 22.4031 59.3916 22.4031C59.6219 22.4031 59.8077 22.1663 60.0677 21.8851L60.246 22.2995C59.5402 22.9951 59.2282 23.3651 58.6636 23.3651C58.0767 23.3651 57.7795 22.9507 57.7795 22.3587V22.0331H57.6383C57.408 22.4771 56.7766 23.3651 55.6473 23.3651C54.637 23.3651 53.9832 22.7361 53.9832 21.8481C53.9832 20.2202 55.8851 19.6283 57.7795 18.8513V18.0373ZM57.7795 19.5543L57.6309 19.4063C56.628 19.8502 55.3353 20.3312 55.3353 21.4042C55.3353 21.9739 55.6473 22.2255 56.2417 22.2255C57.1703 22.2255 57.7795 21.3894 57.7795 21.3228V19.5543Z" fill="white"/>
<path d="M69.9259 17.0088L67.3257 23.3651H67.1771L65.3792 19.1177L63.6111 23.3651H63.4625L60.7731 17.0088L60.6245 16.8608H60.0896V16.4168H63.0539V16.8608H62.3778L62.2293 17.0088L63.8414 21.16H63.99L65.0078 18.2297L64.4877 17.0088L64.3391 16.8608H63.8042V16.4168H66.7685V16.8608H66.0924L65.9438 17.0088L67.556 21.16H67.7046L69.1012 17.0088L68.9527 16.8608H68.2618V16.4168H70.6465V16.8608H70.0745L69.9259 17.0088Z" fill="white"/>
<path d="M54.0418 33.7505C53.6406 34.3277 52.6154 36 49.8963 36C47.0732 36 44.8444 33.8541 44.8444 30.7832C44.8444 27.7494 47.1475 25.6775 50.0449 25.6775C51.865 25.6775 52.8234 26.3656 52.9051 26.4174H53.0537V25.8255H53.5737V29.3477H53.0537V28.9037C53.0537 27.4608 51.9616 26.2694 50.1786 26.2694C47.8532 26.2694 46.5903 28.3044 46.5903 30.7092C46.5903 33.0771 47.7418 35.26 50.3569 35.26C52.6005 35.26 53.3731 33.9133 53.7 33.3657L54.0418 33.7505Z" fill="white"/>
<path d="M55.4322 35.26V26.9206L55.2836 26.7726L54.5407 27.076L54.3401 26.669L56.5838 25.6775L56.7323 25.8255V35.26L56.8809 35.408H57.7204V35.852H54.3699V35.408H55.2836L55.4322 35.26Z" fill="white"/>
<path d="M58.8255 27.2906V25.8255H60.2965V27.2906H58.8255ZM58.9964 35.26V30.1691L58.8478 30.0211L58.1569 30.3023L57.9563 29.8953L60.1479 28.9037L60.2965 29.0517V35.26L60.4451 35.408H61.2845V35.852H57.934V35.408H58.8478L58.9964 35.26Z" fill="white"/>
<path d="M62.7538 35.26V30.1691L62.6052 30.0211L61.9143 30.3023L61.7137 29.8953L63.9276 28.9037L64.0762 29.0517L63.9796 30.0803H64.1282C64.5145 29.5623 65.1163 28.9037 66.2307 28.9037C67.1519 28.9037 67.9988 29.5031 67.9988 30.8054V35.26L68.1474 35.408H68.9869V35.852H65.7032V35.408H66.5427L66.6913 35.26V31.0348C66.6913 30.3171 66.3718 29.7547 65.5843 29.7547C64.7968 29.7547 64.2099 30.4651 64.0539 30.7314V35.26L64.2025 35.408H65.042V35.852H61.6914V35.408H62.6052L62.7538 35.26Z" fill="white"/>
<path d="M70.25 27.2906V25.8255H71.721V27.2906H70.25ZM70.4209 35.26V30.1691L70.2723 30.0211L69.5814 30.3023L69.3808 29.8953L71.5724 28.9037L71.721 29.0517V35.26L71.8696 35.408H72.7091V35.852H69.3585V35.408H70.2723L70.4209 35.26Z" fill="white"/>
<path d="M76.3625 28.9037C77.8261 28.9037 78.5244 29.7769 78.725 30.5686L78.6358 30.761L77.3283 30.909L76.9123 29.8731C76.7711 29.5253 76.5408 29.3995 76.1693 29.3995C75.0921 29.3995 74.1932 30.4207 74.1932 31.945C74.1932 33.5581 75.0475 34.7421 76.4591 34.7421C77.9375 34.7421 78.2792 33.6321 78.5467 32.9217L78.8513 33.1437C78.7473 33.9873 78.0564 36 76.0876 36C74.208 36 73.116 34.4831 73.116 32.574C73.116 30.8572 74.1189 28.9037 76.3625 28.9037Z" fill="white"/>
</svg>
